<svg id="Layer_1" data-name="Layer 1" xmlns="http://www.w3.org/2000/svg" viewBox="0 0 2000 2000"><defs><style>.cls-1{fill:#2c4bcb;}.cls-2{fill:#1f367f;}.cls-3{fill:#fff;}</style></defs><circle class="cls-1" cx="1000.42" cy="1000.3" r="624.42"/><polygon class="cls-2" points="1245.81 756.86 732.13 882.57 773.18 741.82 1144.41 650.98 1245.81 756.86"/><polygon class="cls-2" points="1342.83 1153.32 1301.79 1294.07 930.55 1384.91 829.15 1279.03 1342.83 1153.32"/><polygon class="cls-2" points="1408.78 927.08 1388.25 997.46 716.89 1161.75 666.19 1108.81 686.71 1038.43 1358.08 874.14 1408.78 927.08"/><polygon class="cls-3" points="1208.33 738.92 694.65 864.62 735.7 723.88 1106.93 633.03 1208.33 738.92"/><polygon class="cls-3" points="1305.35 1135.38 1264.31 1276.12 893.07 1366.97 791.67 1261.08 1305.35 1135.38"/><polygon class="cls-3" points="1371.29 909.14 1350.77 979.51 679.4 1143.8 628.71 1090.86 649.23 1020.49 1320.6 856.2 1371.29 909.14"/></svg>